<svg width="36" height="36" viewBox="0 0 36 36" fill="none" xmlns="http://www.w3.org/2000/svg">
<path d="M32 6H4C3.46957 6 2.96086 6.21071 2.58579 6.58579C2.21071 6.96086 2 7.46957 2 8V28C2 28.5304 2.21071 29.0391 2.58579 29.4142C2.96086 29.7893 3.46957 30 4 30H19L19.57 29.3L20.5 28.16L20.41 28H4V8H32V16.56C32.7597 17.0518 33.4351 17.663 34 18.37V8C34 7.46957 33.7893 6.96086 33.4142 6.58579C33.0391 6.21071 32.5304 6 32 6V6Z" fill="#F8F8F8"/>
<path d="M7 12H24V13.6H7V12Z" fill="#F8F8F8"/>
<path d="M7 16H18V17.6H7V16Z" fill="#F8F8F8"/>
<path d="M7 23H17V24.6H7V23Z" fill="#F8F8F8"/>
<path d="M27.46 17.23C26.1803 17.2198 24.9274 17.5959 23.8648 18.3092C22.8023 19.0224 21.9797 20.0396 21.5044 21.2278C21.0291 22.4159 20.9233 23.7199 21.2009 24.9691C21.4784 26.2184 22.1263 27.3548 23.06 28.23L21.12 30.6L22.02 34.21L25.68 29.75C26.8385 30.0926 28.0715 30.0926 29.23 29.75L32.89 34.21L33.79 30.6L31.85 28.23C32.7837 27.3548 33.4316 26.2184 33.7091 24.9691C33.9867 23.7199 33.8809 22.4159 33.4056 21.2278C32.9303 20.0396 32.1077 19.0224 31.0452 18.3092C29.9826 17.5959 28.7297 17.2198 27.45 17.23H27.46ZM27.46 27.91C26.6102 27.8982 25.7829 27.6354 25.0821 27.1546C24.3812 26.6739 23.8381 25.9967 23.5211 25.2082C23.2041 24.4197 23.1272 23.555 23.3003 22.723C23.4733 21.8909 23.8884 21.1286 24.4935 20.5318C25.0986 19.935 25.8666 19.5304 26.701 19.3689C27.5354 19.2075 28.3989 19.2962 29.1829 19.6241C29.967 19.952 30.6366 20.5044 31.1076 21.2118C31.5786 21.9193 31.8299 22.7501 31.83 23.6C31.8194 24.7502 31.3537 25.8494 30.5348 26.6571C29.7158 27.4649 28.6103 27.9153 27.46 27.91V27.91Z" fill="#F8F8F8"/>
</svg>
