<svg width="36" height="36" viewBox="0 0 36 36" fill="none" xmlns="http://www.w3.org/2000/svg">
<path d="M33.68 15.4H32V21.08H28.92V16.27H27V21.08H18.92V16.27H17V21.08H8.9V16.27H7V21.08H4V15H20.58C19.7731 14.6037 19.1448 13.9183 18.82 13.08H14V9.08H12V13.08H4V8H20.14L21.29 6H4C3.46957 6 2.96086 6.21071 2.58579 6.58579C2.21071 6.96086 2 7.46957 2 8V28C2 28.5304 2.21071 29.0391 2.58579 29.4142C2.96086 29.7893 3.46957 30 4 30H32C32.5304 30 33.0391 29.7893 33.4142 29.4142C33.7893 29.0391 34 28.5304 34 28V15.38L33.68 15.4ZM23.8 28V24.27H22.2V28H14V24.27H12.4V28H4V23H32V28H23.8Z" fill="#F8F8F8"/>
<path d="M26.85 1.14L21.13 11C20.9969 11.1953 20.9205 11.4237 20.9093 11.6598C20.898 11.8959 20.9524 12.1305 21.0663 12.3376C21.1802 12.5446 21.3492 12.7162 21.5546 12.8331C21.76 12.95 21.9938 13.0078 22.23 13H33.68C33.9162 13.0078 34.15 12.95 34.3554 12.8331C34.5608 12.7162 34.7298 12.5446 34.8437 12.3376C34.9576 12.1305 35.012 11.8959 35.0007 11.6598C34.9895 11.4237 34.9131 11.1953 34.78 11L29.06 1.14C28.9472 0.947056 28.7858 0.787012 28.592 0.67579C28.3981 0.564568 28.1785 0.506046 27.955 0.506046C27.7315 0.506046 27.5119 0.564568 27.318 0.67579C27.1242 0.787012 26.9628 0.947056 26.85 1.14V1.14Z" fill="#F8F8F8"/>
</svg>
