<svg width="36" height="36" viewBox="0 0 36 36" fill="none" xmlns="http://www.w3.org/2000/svg">
<path d="M10.85 27.44C11.2679 27.3503 11.6524 27.1453 11.9599 26.8484C12.2674 26.5515 12.4857 26.1745 12.59 25.76C13.13 25.62 13.65 25.44 14.18 25.25V24.05C14.1842 23.8785 14.2043 23.7078 14.24 23.54C13.6452 23.78 13.0376 23.9869 12.42 24.16C12.2042 23.7328 11.8595 23.3844 11.4347 23.1641C11.0098 22.9438 10.5264 22.8627 10.053 22.9324C9.5795 23.0021 9.13997 23.219 8.79664 23.5524C8.45331 23.8858 8.22359 24.3188 8.14003 24.79H7.69003C5.94053 22.759 4.92601 20.1981 4.81003 17.52C6.15389 15.6365 7.85227 14.0332 9.81003 12.8C10.1013 13.098 10.4702 13.3084 10.875 13.4073C11.2797 13.5063 11.7041 13.4899 12.1 13.36C13.2733 15.2848 14.7881 16.9793 16.57 18.36C16.6353 18.276 16.7054 18.1958 16.78 18.12L17.73 17.21C15.9851 15.9084 14.508 14.2819 13.38 12.42C13.6067 12.0606 13.728 11.6449 13.73 11.22V11C17.3862 9.77133 21.3438 9.77133 25 11C24.7304 12.1493 24.3451 13.2683 23.85 14.34H25.6C25.9715 13.4575 26.2757 12.5483 26.51 11.62C26.94 11.81 27.35 12.03 27.77 12.26C28.343 13.5533 28.6816 14.9382 28.77 16.35C29.1471 16.139 29.5683 16.0191 30 16C30.23 16.0045 30.4585 16.0381 30.68 16.1C30.5035 13.4026 29.5499 10.8139 27.9342 8.6467C26.3186 6.47945 24.1101 4.82628 21.5754 3.88683C19.0407 2.94738 16.2883 2.76182 13.6504 3.35255C11.0126 3.94329 8.60216 5.28507 6.71025 7.21585C4.81835 9.14663 3.52587 11.5838 2.9889 14.2331C2.45193 16.8825 2.69343 19.6306 3.68424 22.1456C4.67504 24.6607 6.37278 26.8351 8.57244 28.4063C10.7721 29.9776 13.3796 30.8784 16.08 31C15.826 30.3575 15.826 29.6425 16.08 29C14.2396 28.8911 12.4494 28.3571 10.85 27.44V27.44ZM16.76 4.99999C18.3671 5.00241 19.9574 5.32763 21.4364 5.95635C22.9154 6.58506 24.2531 7.50446 25.37 8.65999C25.37 8.90999 25.37 9.16999 25.29 9.41999C21.2735 8.09623 16.9324 8.1349 12.94 9.52999C12.6006 9.23958 12.1833 9.05528 11.74 8.99999C11.4723 8.17348 11.2684 7.32767 11.13 6.46999C12.8564 5.52243 14.7907 5.01738 16.76 4.99999V4.99999ZM9.66003 7.35999C9.78935 8.00819 9.95291 8.64909 10.15 9.27999C9.82289 9.48482 9.55312 9.76935 9.36597 10.1069C9.17883 10.4445 9.08044 10.824 9.08003 11.21V11.36C7.56906 12.3107 6.19618 13.4648 5.00003 14.79C5.56024 11.8141 7.22485 9.15996 9.66003 7.35999V7.35999Z" fill="#F8F8F8"/>
<path d="M25 21.19C24.241 21.1979 23.5014 21.4306 22.8746 21.8587C22.2478 22.2868 21.7618 22.891 21.4782 23.595C21.1946 24.2991 21.1261 25.0714 21.2812 25.8145C21.4363 26.5575 21.8081 27.2379 22.3497 27.7697C22.8913 28.3015 23.5783 28.6609 24.324 28.8024C25.0698 28.944 25.8407 28.8614 26.5395 28.565C27.2383 28.2686 27.8336 27.7718 28.2501 27.1373C28.6667 26.5028 28.8859 25.759 28.88 25C28.8642 23.9823 28.4482 23.0118 27.722 22.2987C26.9957 21.5856 26.0178 21.1873 25 21.19V21.19ZM25 27.27C24.5601 27.2621 24.1322 27.1248 23.7698 26.8752C23.4074 26.6257 23.1265 26.2749 22.9622 25.8667C22.7979 25.4585 22.7575 25.0109 22.846 24.5799C22.9345 24.1489 23.148 23.7534 23.4598 23.443C23.7716 23.1325 24.168 22.9208 24.5994 22.8342C25.0308 22.7476 25.4782 22.79 25.8857 22.9561C26.2932 23.1221 26.6427 23.4045 26.8907 23.768C27.1386 24.1315 27.2741 24.56 27.28 25C27.2814 25.2993 27.2232 25.5959 27.109 25.8726C26.9948 26.1493 26.8267 26.4005 26.6146 26.6117C26.4025 26.8229 26.1505 26.9898 25.8734 27.1028C25.5962 27.2158 25.2993 27.2727 25 27.27V27.27Z" fill="#F8F8F8"/>
<path d="M34.17 24.14C34.1798 23.9071 34.1179 23.6767 33.9928 23.48C33.8676 23.2834 33.6851 23.1298 33.47 23.04L31.91 22.58C31.8366 22.3667 31.75 22.1567 31.65 21.95L32.37 20.62C32.4831 20.4036 32.5237 20.1566 32.4859 19.9154C32.4481 19.6741 32.3339 19.4514 32.16 19.28L30.82 17.96C30.6474 17.7877 30.4241 17.6753 30.1829 17.6393C29.9417 17.6033 29.6954 17.6456 29.48 17.76L28.14 18.47C27.9214 18.3656 27.6978 18.2721 27.47 18.19L27 16.71C26.9211 16.4869 26.7748 16.2939 26.5812 16.1577C26.3877 16.0215 26.1566 15.9489 25.92 15.95H24C23.7584 15.9517 23.5237 16.0301 23.3295 16.1739C23.1354 16.3177 22.992 16.5194 22.92 16.75L22.48 18.18C22.2488 18.2619 22.0218 18.3553 21.8 18.46L20.48 17.76C20.2667 17.6467 20.023 17.6041 19.784 17.6383C19.545 17.6724 19.323 17.7816 19.15 17.95L17.78 19.26C17.6038 19.4321 17.4882 19.6567 17.4503 19.9001C17.4125 20.1434 17.4545 20.3925 17.57 20.61L18.27 21.89C18.1633 22.1033 18.07 22.32 17.99 22.54L16.58 23C16.3451 23.0694 16.1391 23.2132 15.993 23.4097C15.8469 23.6063 15.7686 23.8451 15.77 24.09V25.96C15.7813 26.1971 15.8665 26.4248 16.0135 26.6113C16.1605 26.7977 16.362 26.9336 16.59 27L18.06 27.44C18.14 27.6533 18.2333 27.8667 18.34 28.08L17.62 29.43C17.5032 29.6465 17.4596 29.8949 17.4956 30.1382C17.5317 30.3815 17.6455 30.6067 17.82 30.78L19.16 32.1C19.3326 32.2723 19.5559 32.3847 19.797 32.4207C20.0382 32.4567 20.2846 32.4144 20.5 32.3L21.87 31.58C22.0766 31.6733 22.2866 31.76 22.5 31.84L22.94 33.31C23.0125 33.5422 23.1575 33.7451 23.3536 33.889C23.5497 34.033 23.7867 34.1104 24.03 34.11H25.93C26.1698 34.1062 26.4023 34.0268 26.5944 33.8832C26.7866 33.7395 26.9285 33.539 27 33.31L27.44 31.84C27.65 31.77 27.86 31.68 28.06 31.59L29.44 32.32C29.6542 32.432 29.8985 32.473 30.1376 32.437C30.3767 32.4011 30.5981 32.29 30.77 32.12L32.11 30.8C32.2861 30.6278 32.4018 30.4033 32.4396 30.1599C32.4775 29.9166 32.4355 29.6675 32.32 29.45L31.59 28.11C31.6833 27.91 31.7666 27.71 31.84 27.51L33.34 27.07C33.5753 27.0052 33.7834 26.866 33.933 26.6731C34.0826 26.4802 34.1658 26.2441 34.17 26V24.14ZM32.57 25.64L30.57 26.22L30.45 26.64C30.3391 27.0183 30.1883 27.3837 30 27.73L29.79 28.11L30.79 29.9L29.93 30.74L28.11 29.74L27.74 29.94C27.3838 30.1321 27.0084 30.2863 26.62 30.4L26.2 30.52L25.61 32.52H24.38L23.79 30.57L23.37 30.45C22.9787 30.3396 22.6 30.1888 22.24 30L21.87 29.8L20.06 30.8L19.2 29.95L20.2 28.13L19.98 27.75C19.7756 27.3925 19.6113 27.0135 19.49 26.62L19.36 26.21L17.41 25.63V24.42L19.35 23.84L19.47 23.43C19.59 23.0328 19.7544 22.6504 19.96 22.29L20.18 21.9L19.18 20.17L20.05 19.33L21.82 20.27L22.2 20.06C22.5709 19.8544 22.9632 19.6901 23.37 19.57L23.78 19.45L24.37 17.54H25.6L26.18 19.44L26.59 19.56C26.9929 19.6775 27.3818 19.8384 27.75 20.04L28.13 20.25L29.93 19.3L30.79 20.15L29.79 21.92L30 22.3C30.198 22.6581 30.3556 23.0371 30.47 23.43L30.59 23.85L32.52 24.42L32.57 25.64Z" fill="#F8F8F8"/>
</svg>
